<svg width="422" height="141" viewBox="0 0 422 141" fill="none" xmlns="http://www.w3.org/2000/svg">
<path d="M174.681 75.5861C178.583 74.9451 183.627 74.297 187.752 74.1837C191.895 73.9886 195.868 73.5917 200.365 72.6725C211.083 70.244 223.45 67.9252 234.211 67.5098C245.51 67.1524 256.624 66.9403 267.202 67.0228C277.185 66.6527 289.763 64.9354 300.349 65.8135C311.786 65.7759 322.711 67.7335 333.675 68.7295C341.015 69.5182 348.695 69.8417 356.19 71.4396C359.546 72.1877 362.639 72.9099 365.907 74.4359C368.365 75.8065 369.997 77.3272 372.224 78.0274C372.538 78.1269 372.83 78.2864 373.036 78.4867C373.241 78.6868 373.343 78.9106 373.308 79.1193C373.271 79.3276 373.1 79.5075 372.825 79.6189C372.549 79.7295 372.192 79.7608 371.826 79.699C368.987 79.2085 366.5 77.5011 364.765 76.9449C362.614 76.2555 359.499 75.93 357.104 75.6482C356.849 74.7261 356.373 73.9804 355.313 73.549C354.778 73.3293 353.966 73.172 353.345 73.2689C352.794 73.3563 352.355 73.5736 351.951 73.7834C351.522 74.0024 351.124 74.2129 350.627 74.2594C349.785 74.3386 348.965 74.6509 348.119 74.9883C347.81 75.1111 347.495 75.2373 347.176 75.357C344.612 75.3927 342.105 75.5649 339.425 75.691C338.405 75.5804 337.472 75.4843 336.674 75.4996C335.966 75.5134 335.298 75.6778 334.649 75.886C334.234 75.9 333.829 75.9136 333.42 75.9265C330.798 76.0131 328.099 76.0515 325.615 76.1517C324.211 75.8713 321.035 75.8175 318.421 75.3854C317.242 75.2329 316.116 75.0089 315.031 74.8143C313.428 74.5258 311.912 74.2973 310.568 74.3917C309.663 74.4545 308.726 74.3227 307.785 74.2027C306.511 74.0414 305.225 73.9024 304.101 74.2707C303.375 74.5029 302.727 74.7833 302.128 75.0462C301.192 75.4647 300.213 75.8447 299.386 75.8842C297.82 75.9623 296.546 76.2387 295.461 76.5033C294.155 76.8196 293.12 77.1079 292.179 76.9023C292.035 76.8712 291.873 76.8285 291.687 76.781C290.709 76.5256 289.156 76.1683 286.814 76.7236C285.982 76.92 285.242 77.2675 284.495 77.6121C283.424 78.1117 282.374 78.6003 281.193 78.5846C281.014 78.5825 280.82 78.5056 280.645 78.4351C280.423 78.3452 280.222 78.2678 280.124 78.3689C279.837 78.6653 279.361 79.0126 278.851 79.3899C278.468 79.668 278.07 79.9619 277.703 80.2641C274.669 80.7795 271.665 81.3244 268.249 81.715C266.579 81.9008 265.13 81.9707 263.794 82.0852C263.077 81.7227 262.346 81.4014 261.571 81.1697C260.561 80.867 259.263 80.8217 257.586 80.7725C256.351 80.7363 254.904 80.6985 253.21 80.5531C250.068 80.2852 246.847 80.5713 244.729 80.9001C244.283 80.9702 243.829 81.0418 243.374 81.1182C241.646 81.411 239.513 81.7804 235.394 82.3553C231.496 82.9023 228.098 83.2307 225.448 83.4244C224.113 83.5229 223.048 83.5921 222.276 83.6809C220.945 83.8304 219.436 84.0144 217.873 84.2707C215.421 84.6686 212.849 85.2178 211.4 85.6191C210.88 85.7627 210.348 85.923 209.75 86.102C208.124 86.5926 206.148 87.202 203.401 87.8891C200.537 88.6091 198.51 88.9352 196.473 89.0971C195.646 89.1639 194.859 88.9667 194.049 88.7573C192.906 88.4583 191.717 88.1372 190.244 88.5008C189.902 88.5854 189.54 88.7156 189.166 88.8501C188.478 89.0976 187.746 89.3595 187.004 89.387C186.745 89.3966 186.514 89.3379 186.288 89.2809C186.041 89.218 185.802 89.157 185.55 89.1897C184.639 89.3045 183.723 89.5057 182.778 89.6922C181.595 89.9287 180.6 90.1187 179.96 90.1446C178.824 90.1902 177.617 90.5065 176.37 90.8105C175.418 91.0427 174.441 91.268 173.473 91.3584C170.694 91.6337 166.878 92.0905 163.109 92.5661C161.673 92.7471 160.451 92.5559 158.892 92.2923C157.922 92.1276 156.821 91.9339 155.448 91.7693C154.673 91.6758 153.988 91.8395 153.367 91.9872C152.794 92.1231 152.288 92.2463 151.753 92.141C151.284 92.048 150.996 91.7257 150.73 91.4197C150.434 91.0791 150.158 90.7586 149.668 90.7917C149.407 90.8093 149.083 90.9454 148.698 91.1063C148.546 91.1699 148.383 91.237 148.212 91.3028C148.224 91.2409 148.229 91.1853 148.232 91.1432C148.25 90.8451 147.765 90.6585 147.291 90.4744C147.102 90.401 146.914 90.3282 146.761 90.249C146.197 89.9575 145.108 89.8441 144.278 89.8001C143.926 89.7815 143.615 89.6677 143.253 89.535C142.931 89.4173 142.569 89.2844 142.103 89.1905C141.837 89.137 141.638 89.0372 141.473 88.954C141.353 88.8938 141.252 88.8424 141.155 88.8244C141.072 88.8089 140.999 88.89 140.917 88.9814C140.857 89.0471 140.793 89.1184 140.717 89.1627C140.535 89.2687 140.309 89.2899 140.155 89.2425C140.083 89.2207 140.028 89.1839 139.973 89.1473C139.909 89.1046 139.846 89.0618 139.756 89.0426C139.344 88.955 138.934 89.0287 138.51 89.1064C138.044 89.1918 137.56 89.2817 137.033 89.1691C136.868 89.1337 136.693 89.0628 136.524 88.9943C136.347 88.9226 136.174 88.8536 136.026 88.8309C135.426 88.7385 134.851 88.9306 134.327 89.1103C133.977 89.2297 133.656 89.3436 133.359 89.3645C132.814 89.4026 132.509 89.6542 132.286 89.8398C132.171 89.9361 132.072 90.0153 131.969 90.0381C131.874 90.0295 131.779 90.0195 131.685 90.0087C131.6 89.9884 131.511 89.9674 131.427 89.9721C131.42 89.9724 131.414 89.9734 131.408 89.9738C130.88 89.9022 130.355 89.8026 129.846 89.7019C128.697 89.4757 127.57 89.2439 126.376 89.3108C126.119 89.3252 125.854 89.4213 125.585 89.5188C125.255 89.6382 124.919 89.7601 124.583 89.7373C123.781 89.683 122.982 89.4764 122.2 89.2741C121.023 88.9696 119.879 88.6754 118.813 88.9194C118.463 88.9999 118.118 89.1421 117.774 89.2861C117.581 89.3663 117.389 89.4475 117.195 89.5179C117.24 89.3788 117.265 89.2478 117.288 89.1256C117.337 88.8738 117.379 88.6582 117.567 88.4794C118.019 88.0569 118.533 87.4738 118.491 87.0359C118.48 86.917 118.496 86.7855 118.513 86.6531C118.557 86.3211 118.602 85.9817 118.195 85.8157C117.925 85.7038 117.216 85.4459 116.762 85.6899C116.663 85.7429 116.6 85.8516 116.53 85.9722C116.403 86.1891 116.259 86.4458 115.829 86.4971C115.757 86.5057 115.679 86.5133 115.599 86.5202C115.279 86.5477 114.918 86.5788 114.781 86.7531C114.623 86.9539 114.652 87.1875 114.686 87.46C114.73 87.8148 114.784 88.2362 114.442 88.7372C114.373 88.8362 114.25 88.8686 114.154 88.8931C114.087 88.9104 114.035 88.9243 114.03 88.9544C114.024 88.9889 114.044 89.0613 114.07 89.1528C114.161 89.476 114.32 90.0398 113.623 90.0537C113.44 90.0576 113.22 90.0282 113.031 90.0019C112.754 89.9633 112.517 89.9318 112.484 90.0235C112.472 90.0582 112.463 90.096 112.456 90.1351C112.237 90.1221 112.013 90.1093 111.785 90.0967C111.501 89.9852 111.09 89.9921 110.58 90.0023C110.454 90.0047 110.324 90.007 110.189 90.0081C109.741 89.9839 109.291 89.9603 108.838 89.9365C108.484 89.8895 108.1 89.8134 107.699 89.693C106.89 89.4517 106.189 89.0547 105.5 88.6665C105.211 88.503 104.921 88.3407 104.631 88.1925C104.745 88.1742 104.846 88.1527 104.926 88.123C105.468 87.9199 105.681 87.5207 105.881 87.1532C106.014 86.9088 106.139 86.6783 106.346 86.5296C106.722 86.2571 106.687 85.9386 106.659 85.703C106.644 85.5808 106.633 85.4807 106.684 85.4213C106.725 85.3737 106.819 85.3513 106.916 85.3281C107 85.3079 107.088 85.2867 107.143 85.2484C107.82 84.7822 107.619 84.5115 107.32 84.1174C107.158 83.9 106.967 83.645 106.879 83.2991C106.804 82.9327 106.83 82.8256 107.184 82.6797C106.909 82.4987 106.628 82.3178 106.353 82.137C106.245 82.1487 106.162 82.2619 106.046 82.4498C105.839 82.7855 105.165 82.9084 104.639 83.0044C104.396 83.0489 104.184 83.0878 104.063 83.1393C103.428 83.4132 103.612 83.7942 103.776 84.1296C103.865 84.3141 103.948 84.485 103.884 84.6163C103.856 84.6725 103.896 84.7283 103.935 84.7851C103.966 84.8291 103.997 84.8738 103.998 84.9198C104.007 85.2537 103.631 85.5018 103.28 85.732C103.08 85.8638 102.889 85.9903 102.783 86.1235C102.751 86.1641 102.726 86.2055 102.702 86.2457C102.667 86.3044 102.632 86.3604 102.579 86.4083C102.457 86.5175 102.206 86.5911 101.931 86.6712C101.79 86.7123 101.643 86.7552 101.503 86.8056C101.322 86.871 101.257 87.003 101.188 87.141C101.14 87.2384 101.089 87.3388 100.995 87.4214C100.826 87.5709 100.483 87.6245 100.166 87.674C100.027 87.6956 99.8943 87.717 99.7811 87.7447C99.735 87.756 99.7129 87.7787 99.7079 87.8098C99.1853 87.9132 98.6853 88.0184 98.2007 88.1209C95.7537 88.6317 93.6596 89.084 90.3975 88.6598C89.7751 88.5788 89.1188 88.5618 88.5014 88.5889C86.5251 88.3816 84.5223 88.218 82.3675 88.0015C81.951 87.6846 81.4345 87.4102 80.8108 87.1745C79.6416 86.7311 78.3892 86.5424 76.9323 86.2251C75.8836 86.0019 74.5573 85.6348 73.5012 85.2022C71.6138 84.4581 69.5761 83.9127 67.0648 83.4605C64.5382 83.0287 61.6296 82.3016 59.6959 81.9052C58.6249 81.6822 57.5566 81.2134 56.5535 80.7932C55.1501 80.2012 53.8636 79.7166 53.0175 80.0905C52.748 80.2094 52.4788 80.439 52.222 80.6644C52.039 80.8249 51.8609 80.9827 51.6914 81.0982C51.2646 81.0264 50.8661 80.9634 50.4081 80.9031C49.6063 80.5611 48.3497 80.1716 47.0925 80.4338C46.6209 80.3622 46.1419 80.2881 45.6827 80.2122C44.6804 80.0503 43.7009 79.8771 42.7101 79.6851C42.3891 79.6223 42.0603 79.5567 41.7359 79.4894C41.7328 79.4887 41.7298 79.488 41.7267 79.4873C41.0698 79.3514 40.4095 79.206 39.7638 79.0535C39.4875 78.9884 39.2112 78.9217 38.9359 78.8537C38.2351 78.6806 37.5409 78.5003 36.8478 78.3092C36.4786 78.2063 36.093 78.0933 35.7257 77.9763C35.1217 77.7849 34.5232 77.5753 33.9368 77.3523C32.9945 76.9993 32.0404 76.5626 31.2291 76.2569C31.1011 76.2102 31.0044 76.1456 30.9757 76.0689C30.9459 75.9935 30.9829 75.8894 30.9434 75.7954C30.9053 75.705 30.8816 75.5986 30.9883 75.5222C31.0897 75.4472 31.2576 75.4244 31.4183 75.446C32.396 75.596 33.3476 75.8347 34.3137 75.9972C34.9091 76.1011 35.5072 76.1895 36.1029 76.2606C36.4683 76.3041 36.8307 76.3409 37.1948 76.371C37.8885 76.4271 38.5944 76.4751 39.2934 76.5152C39.5685 76.5308 39.8436 76.545 40.1181 76.5576C40.7614 76.5871 41.4152 76.6102 42.0635 76.6245C42.0674 76.6246 42.0712 76.6247 42.0751 76.6248C42.3926 76.6317 42.7136 76.6369 43.0271 76.6399C44.0013 76.6508 44.9639 76.6448 45.9508 76.6302C46.4613 76.6207 46.9902 76.6103 47.5217 76.5969C47.8123 76.5891 48.1075 76.5806 48.3964 76.5713C48.5567 76.5667 48.7122 76.5618 48.8742 76.557C52.5105 76.3334 56.5795 76.5801 60.267 76.9943C64.0795 77.4472 67.3058 77.6436 71.2303 77.842C75.3048 78.1023 78.5331 78.8329 81.947 78.6535C104.894 77.9659 129.52 75.9655 152.716 77.0375C155.918 77.0626 159.19 76.9716 162.42 76.816C165.697 76.6525 168.752 76.4474 171.781 76.0261C172.711 75.8985 173.677 75.7515 174.681 75.5861Z" fill="white"/>
<path d="M373.796 56.4065C374.79 57.2451 375.282 58.6532 376.382 59.7147C377.933 61.1968 379.311 62.0249 380.322 63.1261C381.318 64.2713 382.427 65.4221 383.619 66.6419C384.771 67.8487 386.249 69.2151 387.371 70.9123C388.473 72.5567 389.224 74.2183 389.948 75.8109C390.437 76.8746 390.927 78.0356 391.425 78.8571C391.69 79.2338 392.038 79.6034 392.404 79.9799C392.675 80.2572 392.955 80.5608 393.208 80.7649C393.241 80.7912 393.243 80.8365 393.237 80.9131C393.229 81.0183 393.382 80.9669 393.472 80.97C393.555 80.9368 393.753 81.2166 393.374 81.4373C393.087 81.5644 393 81.5304 392.905 81.5146C392.36 81.3524 392.056 81.2024 391.676 81.0533C391.267 80.8872 390.839 80.7094 390.398 80.467C390.594 80.1001 390.715 79.7996 390.671 79.5773C390.65 79.4642 390.569 79.3502 390.446 79.329C390.34 79.3093 390.207 79.3404 390.079 79.3684C389.946 79.3977 389.818 79.4238 389.734 79.3854C389.591 79.3203 389.371 79.3238 389.139 79.3249C389.055 79.3254 388.969 79.3255 388.886 79.3235C388.554 79.0375 388.232 78.748 387.915 78.458C387.854 78.3017 387.793 78.1607 387.706 78.0694C387.627 77.9874 387.496 77.9547 387.349 77.9353C387.301 77.8907 387.254 77.8461 387.206 77.8015C386.897 77.5141 386.594 77.2285 386.293 76.9492C386.195 76.6309 386.086 76.3038 385.87 75.9398C385.777 75.783 385.716 75.6058 385.657 75.4362C385.569 75.1859 385.483 74.9513 385.308 74.8282C385.191 74.746 385.144 74.5984 385.097 74.4514C385.033 74.2543 384.965 74.057 384.733 74.0313C384.587 74.0153 384.432 74.022 384.289 74.0303C384.062 74.0434 383.865 74.0603 383.782 73.9881C383.626 73.8521 383.41 73.8174 383.222 73.7929C382.996 73.7626 382.812 73.7477 382.807 73.5754C382.806 73.5491 382.807 73.5163 382.808 73.4791C382.814 73.2827 382.818 72.9633 382.452 72.838C382.323 72.7933 382.154 72.8135 381.988 72.8347C381.747 72.8649 381.517 72.8981 381.423 72.7285C381.409 72.7032 381.416 72.6488 381.422 72.5992C381.43 72.536 381.437 72.4808 381.398 72.5031C381.283 72.5683 381.14 72.6269 380.982 72.6899C380.866 72.7363 380.743 72.785 380.621 72.8422C380.207 72.6066 379.786 72.3644 379.361 72.1111C379.165 71.9948 378.969 71.8764 378.773 71.7564C378.795 71.5398 378.803 71.3356 378.782 71.1591C378.754 70.9281 378.617 70.7553 378.441 70.5295C378.312 70.3638 378.161 70.169 378.019 69.902C377.756 69.4093 377.322 69.0974 376.989 68.9539C376.918 68.9235 376.845 68.8935 376.768 68.862C376.476 68.7411 376.107 68.5912 375.483 68.1946C374.893 67.8183 374.454 67.4159 374.13 67.1087C373.965 66.9514 373.829 66.8187 373.715 66.7246C373.522 66.5652 373.282 66.3426 373.055 66.1252C372.687 65.771 372.408 65.4991 372.264 65.4486C372.208 65.423 372.148 65.4023 372.081 65.3778C371.894 65.309 371.625 65.1852 371.299 64.9562C370.951 64.7112 370.777 64.4896 370.629 64.2199C370.569 64.1108 370.594 63.9225 370.623 63.7301C370.663 63.4571 370.7 63.1679 370.486 63.0684C370.436 63.045 370.369 63.034 370.299 63.0224C370.169 63.0005 370.032 62.9794 369.964 62.8714C369.941 62.8338 369.942 62.7771 369.942 62.7215C369.943 62.6602 369.944 62.601 369.913 62.5687C369.796 62.4485 369.666 62.3427 369.552 62.2502C369.405 62.1303 369.279 62.0269 369.232 61.9322C369.147 61.7627 368.964 61.6709 368.778 61.5769C368.636 61.5048 368.491 61.4308 368.389 61.3198C368.095 61.0014 367.591 60.6625 367.016 60.3306C366.798 60.2046 366.726 59.9873 366.639 59.7081C366.585 59.5342 366.525 59.3364 366.419 59.1178C366.359 58.9939 366.22 58.9652 366.091 58.9368C365.973 58.9108 365.862 58.8847 365.831 58.7885C365.804 58.7034 365.883 58.5708 365.958 58.4455C366.041 58.306 366.121 58.1759 366.045 58.1272C366.005 58.1012 365.914 58.1036 365.805 58.1053C365.762 58.1059 365.716 58.1063 365.67 58.105C365.694 58.088 365.715 58.072 365.73 58.0597C365.84 57.9725 365.844 57.8577 365.849 57.7455C365.85 57.7007 365.852 57.6561 365.861 57.6139C365.893 57.4588 365.791 57.2923 365.698 57.1752C365.658 57.1255 365.659 57.053 365.662 56.9689C365.663 56.8942 365.666 56.8102 365.641 56.7235C365.627 56.674 365.639 56.6201 365.649 56.5755C365.657 56.5433 365.663 56.5156 365.658 56.498C365.653 56.4827 365.613 56.4954 365.568 56.5095C365.535 56.5198 365.5 56.5307 365.473 56.5326C365.409 56.5372 365.372 56.5121 365.371 56.478C365.37 56.4623 365.377 56.4447 365.384 56.4273C365.392 56.407 365.401 56.3867 365.397 56.3692C365.379 56.2889 365.299 56.2519 365.217 56.2121C365.125 56.168 365.03 56.1201 365.011 56.0125C365.005 55.9787 365.012 55.9344 365.019 55.8915C365.027 55.8467 365.034 55.8034 365.026 55.775C364.993 55.6601 364.848 55.6134 364.715 55.5669C364.626 55.5361 364.542 55.5051 364.5 55.4566C364.423 55.368 364.287 55.3693 364.186 55.37C364.134 55.3703 364.091 55.3705 364.071 55.3577C364.065 55.3395 364.06 55.3209 364.055 55.3025C364.055 55.2834 364.055 55.2638 364.045 55.2506C364.044 55.2496 364.043 55.2487 364.042 55.2478C364.021 55.1431 364.013 55.0375 364.008 54.933C363.997 54.7021 363.991 54.4658 363.875 54.336C363.849 54.3059 363.788 54.2913 363.725 54.2767C363.649 54.2586 363.571 54.2416 363.555 54.1951C363.515 54.0843 363.541 53.9447 363.564 53.8052C363.599 53.5951 363.63 53.3844 363.443 53.2981C363.381 53.2695 363.294 53.2546 363.206 53.24C363.157 53.2319 363.108 53.2242 363.063 53.2138C363.125 53.1902 363.182 53.1657 363.236 53.143C363.345 53.096 363.439 53.0559 363.529 53.0429C363.742 53.0123 364.029 52.9576 364.21 52.8598C364.259 52.8333 364.315 52.8077 364.372 52.7822C364.516 52.718 364.662 52.6526 364.699 52.5637C364.724 52.5036 364.776 52.3556 364.638 52.3459C364.607 52.3439 364.557 52.3585 364.501 52.3749C364.4 52.4042 364.28 52.4389 364.225 52.3925C364.216 52.3847 364.207 52.3759 364.198 52.3666C364.161 52.3295 364.12 52.2877 364.037 52.3065C363.94 52.3281 363.845 52.3819 363.733 52.4446C363.588 52.5263 363.415 52.623 363.179 52.6848C363.132 52.697 363.109 52.6872 363.092 52.6798C363.08 52.6746 363.07 52.6707 363.057 52.6764C363.042 52.683 363.013 52.7011 362.977 52.7241C362.848 52.8054 362.623 52.9465 362.566 52.8582C362.551 52.8343 362.547 52.7998 362.544 52.7687C362.54 52.723 362.536 52.6849 362.495 52.7003C362.48 52.7062 362.463 52.7131 362.446 52.7206C362.436 52.6878 362.425 52.6549 362.414 52.6222C362.44 52.5598 362.408 52.5072 362.367 52.4415C362.358 52.4256 362.347 52.4087 362.337 52.3909C362.316 52.3258 362.294 52.2613 362.272 52.1964C362.267 52.1388 362.272 52.0716 362.294 51.9918C362.338 51.8324 362.454 51.6513 362.566 51.4738C362.614 51.3991 362.661 51.3248 362.701 51.253C362.717 51.2641 362.733 51.2729 362.751 51.2769C362.874 51.3039 363.055 51.2445 363.222 51.1902C363.333 51.1541 363.438 51.1201 363.515 51.1154C363.655 51.1067 363.785 51.0315 363.881 50.9759C363.931 50.947 363.971 50.9235 364 50.9173C364.023 50.9123 364.039 50.9203 364.055 50.9284C364.07 50.9355 364.085 50.9428 364.105 50.942C364.348 50.9323 364.446 50.8455 364.589 50.7181C364.667 50.6479 364.759 50.5654 364.897 50.4771C365.044 50.3861 365.09 50.366 365.177 50.3835C365.232 50.3052 365.287 50.2267 365.341 50.148C365.328 50.1354 365.275 50.1488 365.189 50.1741C365.034 50.2192 364.933 50.153 364.854 50.1014C364.818 50.0775 364.786 50.0567 364.756 50.0516C364.595 50.0244 364.451 50.1353 364.324 50.2325C364.254 50.2861 364.189 50.3355 364.13 50.3559C364.105 50.3647 364.085 50.3825 364.064 50.4006C364.048 50.4146 364.032 50.4289 364.013 50.4393C363.875 50.5148 363.745 50.5187 363.624 50.5229C363.554 50.5253 363.488 50.5278 363.425 50.5434C363.406 50.5481 363.387 50.5539 363.369 50.5597C363.342 50.5682 363.316 50.5761 363.293 50.5797C363.238 50.5878 363.19 50.5705 363.136 50.5516C363.109 50.5419 363.081 50.5318 363.049 50.5246C363.009 50.5152 362.95 50.5363 362.888 50.5583C362.844 50.5738 362.799 50.5897 362.758 50.5959C362.684 50.6072 362.637 50.574 362.593 50.5432C362.574 50.5298 362.555 50.5169 362.535 50.5083C362.527 50.5048 362.516 50.507 362.503 50.5135C362.422 50.4681 362.342 50.4267 362.263 50.3867C361.869 50.1857 361.529 50.0179 361.427 49.5316C361.407 49.4396 361.354 49.3596 361.285 49.2877C361.181 48.9889 361.077 48.6891 360.973 48.3894C361.062 48.2635 361.125 48.1373 361.158 48.0124C361.22 47.7775 361.161 47.6098 361.091 47.4124C361.039 47.2667 360.981 47.1045 360.959 46.8853C360.923 46.518 360.857 46.154 360.708 45.794C360.56 45.4383 360.355 45.0245 360.221 44.8255C360.146 44.712 360.144 44.5111 360.132 44.3203C360.116 44.053 360.077 43.8033 359.842 43.8757C359.767 43.8988 359.658 43.9606 359.554 44.0221C359.48 44.0659 359.407 44.1089 359.35 44.1378C359.318 44.083 359.285 44.0289 359.252 43.9743C359.266 43.7958 359.225 43.5608 358.995 43.5864C358.956 43.5311 358.917 43.4775 358.878 43.4243C358.792 43.3103 358.706 43.2 358.615 43.091C358.586 43.0557 358.555 43.0195 358.524 42.9842C358.524 42.9838 358.524 42.9834 358.524 42.9831C358.463 42.9123 358.398 42.8415 358.334 42.7728C358.306 42.7436 358.279 42.715 358.25 42.6861C358.179 42.6135 358.107 42.5431 358.033 42.4752C357.995 42.4398 357.954 42.4041 357.915 42.3704C357.85 42.3146 357.785 42.2619 357.72 42.2134C357.619 42.1352 357.502 42.0687 357.448 42.0284C357.44 42.0215 357.435 41.9983 357.424 41.9635C357.414 41.9286 357.398 41.886 357.382 41.8418C357.367 41.7975 357.356 41.7527 357.362 41.7138C357.368 41.6751 357.389 41.6476 357.413 41.638C357.569 41.5812 357.743 41.5761 357.91 41.5792C358.014 41.582 358.118 41.5901 358.222 41.6028C358.284 41.6098 358.35 41.6198 358.411 41.6294C358.531 41.6492 358.649 41.6727 358.768 41.7003C358.815 41.7115 358.86 41.7223 358.907 41.7341C359.016 41.7622 359.126 41.7939 359.233 41.8268C359.233 41.827 359.234 41.8272 359.235 41.8274C359.288 41.8438 359.342 41.8615 359.393 41.8785C359.555 41.9329 359.713 41.9915 359.874 42.0583C359.957 42.0921 360.043 42.1295 360.128 42.168C360.175 42.1892 360.222 42.211 360.268 42.233C360.294 42.2452 360.319 42.2574 360.344 42.27C360.933 42.559 361.49 42.9077 362.028 43.3688C362.584 43.864 362.961 44.2441 363.402 44.6845C363.831 45.1175 364.25 45.5591 364.66 46.0099C367.357 48.7883 369.183 52.511 371.322 54.254C371.646 54.5548 371.993 54.8661 372.345 55.172C372.701 55.4817 373.061 55.7868 373.44 56.1063C373.555 56.2028 373.674 56.3033 373.796 56.4065Z" fill="white"/>
<path d="M377.903 92.4283C376.825 93.0463 375.359 92.8684 374.225 93.4768C372.883 94.1924 371.964 95.6981 370.515 96.4432C369.079 97.1811 367.526 97.9383 365.937 98.6004C364.355 99.2617 362.758 99.8438 361.148 100.386C359.563 100.868 358.023 101.549 356.147 101.973C354.869 101.93 353.74 103.799 351.505 101.151C351.302 99.7243 351.841 99.7745 352.032 99.2249C352.217 98.8868 352.407 98.5574 352.597 98.2294C352.624 98.1838 352.689 98.1514 352.78 98.1399C352.871 98.1285 352.981 98.1386 353.088 98.1695C353.196 98.2003 353.295 98.2498 353.366 98.3078C353.437 98.3656 353.474 98.4271 353.472 98.4795C353.457 98.8593 353.444 99.237 353.44 99.6061C353.445 99.9412 353.403 100.733 353.516 100.535C353.058 100.496 352.691 100.577 352.606 100.745C352.559 100.826 352.617 100.932 352.713 100.888C352.798 100.85 352.876 100.729 352.916 100.604C352.958 100.474 352.967 100.342 352.944 100.297C352.844 100.232 353.027 100.006 353.061 99.7869C353.08 99.7064 353.096 99.6247 353.114 99.5466C353.381 99.3876 353.661 99.2005 353.932 98.9987C354.068 98.9994 354.193 98.9912 354.279 98.9342C354.356 98.8834 354.395 98.7605 354.421 98.6166C354.463 98.5825 354.504 98.5481 354.546 98.5134C354.814 98.2894 355.078 98.0539 355.341 97.8093C355.638 97.7862 355.95 97.7448 356.307 97.5894C356.46 97.5226 356.635 97.4915 356.804 97.4598C357.049 97.4153 357.313 97.349 357.459 97.1709C357.56 97.0542 357.736 97.0331 357.905 97.0085C358.134 96.9754 358.347 96.952 358.41 96.7105C358.449 96.5587 358.469 96.3905 358.487 96.2348C358.516 95.9869 358.541 95.7702 358.637 95.7C358.818 95.5682 358.91 95.3455 358.992 95.1491C359.089 94.9129 359.171 94.7149 359.371 94.759C359.401 94.7657 359.438 94.7767 359.479 94.7893C359.698 94.856 360.047 94.9623 360.277 94.6544C360.358 94.5448 360.39 94.3667 360.421 94.192C360.465 93.9377 360.508 93.6911 360.702 93.6741C360.73 93.6716 360.781 93.7031 360.827 93.7319C360.886 93.7685 360.937 93.8004 360.927 93.7519C360.898 93.6097 360.885 93.4407 360.871 93.257C360.86 93.122 360.849 92.9789 360.83 92.833C361.177 92.5357 361.523 92.2406 361.868 91.9481C362.026 91.8142 362.185 91.6803 362.342 91.5477C362.539 91.6686 362.727 91.7709 362.897 91.8307C363.119 91.909 363.315 91.8536 363.564 91.7834C363.746 91.7323 363.956 91.6733 364.236 91.6479C364.754 91.601 365.13 91.2968 365.321 91.0228C365.361 90.9648 365.401 90.905 365.443 90.8407C365.604 90.5964 365.804 90.2914 366.257 89.8082C366.686 89.3511 367.109 89.0384 367.429 88.804C367.593 88.6843 367.73 88.5852 367.828 88.4968C367.995 88.3455 368.21 88.1717 368.429 87.9976C368.77 87.725 369.124 87.452 369.305 87.2592C369.369 87.1908 369.435 87.1138 369.506 87.0317C369.704 86.8037 369.98 86.5112 370.331 86.2436C370.713 85.9544 371.002 85.8586 371.323 85.8127C371.454 85.7939 371.632 85.898 371.816 86.0062C372.077 86.1597 372.348 86.321 372.512 86.1468C372.55 86.1061 372.581 86.0432 372.614 85.9774C372.673 85.8566 372.738 85.7255 372.863 85.7052C372.906 85.6982 372.961 85.7239 373.014 85.7492C373.073 85.777 373.13 85.8042 373.171 85.7868C373.323 85.7218 373.461 85.6394 373.584 85.5663C373.744 85.472 373.878 85.3934 373.982 85.3885C374.169 85.3797 374.308 85.2382 374.45 85.0948C374.559 84.9853 374.669 84.8745 374.802 84.8222C375.183 84.6728 375.638 84.3217 376.086 83.8911C376.256 83.7282 376.473 83.7517 376.749 83.7843C376.922 83.8042 377.123 83.8259 377.343 83.8117C377.467 83.8037 377.523 83.6756 377.554 83.5652C377.585 83.4622 377.609 83.3682 377.68 83.384C377.743 83.3979 377.838 83.5339 377.929 83.6624C378.031 83.8053 378.128 83.9391 378.168 83.8861C378.189 83.8579 378.189 83.7676 378.19 83.6602C378.19 83.6178 378.191 83.5727 378.192 83.5276C378.206 83.5579 378.218 83.5848 378.228 83.605C378.295 83.7479 378.387 83.7965 378.479 83.843C378.515 83.8615 378.552 83.8796 378.586 83.9036C378.713 83.9921 378.854 83.9472 378.952 83.8909C378.993 83.8672 379.054 83.8913 379.126 83.919C379.189 83.9437 379.261 83.9714 379.335 83.9707C379.377 83.9702 379.425 83.9975 379.463 84.0204C379.492 84.0369 379.516 84.051 379.531 84.0502C379.544 84.0494 379.532 84.0047 379.518 83.9544C379.508 83.9182 379.497 83.879 379.494 83.8511C379.487 83.7846 379.507 83.7531 379.536 83.7602C379.55 83.7635 379.565 83.7753 379.581 83.7871C379.599 83.8007 379.617 83.8146 379.632 83.8148C379.7 83.8161 379.728 83.7428 379.757 83.6666C379.789 83.583 379.822 83.4959 379.913 83.4988C379.942 83.4997 379.981 83.5164 380.019 83.5325C380.058 83.5494 380.097 83.5655 380.12 83.5625C380.217 83.5502 380.239 83.4101 380.259 83.281C380.272 83.1951 380.285 83.114 380.319 83.0789C380.38 83.0146 380.356 82.8733 380.338 82.7691C380.328 82.715 380.321 82.6706 380.328 82.6522C380.341 82.649 380.356 82.6463 380.37 82.6441C380.386 82.6469 380.402 82.6497 380.411 82.641C380.412 82.6403 380.413 82.6394 380.413 82.6387C380.496 82.631 380.586 82.6355 380.674 82.6405C380.873 82.6512 381.071 82.6612 381.202 82.5242C381.23 82.4947 381.239 82.4266 381.247 82.3572C381.258 82.2722 381.269 82.1851 381.317 82.1651C381.432 82.1174 381.586 82.1393 381.739 82.1615C381.969 82.1942 382.192 82.2275 382.274 82.0192C382.301 81.9504 382.312 81.8535 382.324 81.7557C382.33 81.7014 382.336 81.6467 382.346 81.5968C382.374 81.6658 382.403 81.7293 382.43 81.7886C382.485 81.9107 382.533 82.0152 382.551 82.1152C382.595 82.3517 382.671 82.6694 382.786 82.8702C382.817 82.9248 382.848 82.9876 382.878 83.0509C382.955 83.2098 383.034 83.372 383.128 83.4149C383.192 83.4436 383.346 83.5056 383.347 83.3535C383.347 83.3204 383.328 83.2643 383.308 83.202C383.271 83.09 383.229 82.9569 383.274 82.898C383.281 82.8881 383.29 82.8782 383.299 82.8685C383.336 82.8294 383.377 82.786 383.354 82.6929C383.327 82.5857 383.267 82.478 383.196 82.3524C383.104 82.1888 382.995 81.9948 382.922 81.731C382.907 81.6788 382.917 81.6533 382.925 81.634C382.931 81.6204 382.934 81.6098 382.928 81.5951C382.92 81.5784 382.9 81.5459 382.875 81.5047C382.784 81.3598 382.625 81.1065 382.722 81.044C382.748 81.0271 382.786 81.0238 382.82 81.021C382.87 81.0169 382.912 81.0134 382.895 80.9675C382.889 80.9501 382.881 80.9315 382.873 80.9124C382.91 80.9009 382.946 80.8895 382.982 80.8782C383.05 80.909 383.109 80.8748 383.182 80.8317C383.2 80.8213 383.219 80.8103 383.239 80.7998C383.31 80.7783 383.382 80.7568 383.455 80.7355C383.519 80.732 383.593 80.7411 383.68 80.7702C383.854 80.8286 384.048 80.9697 384.236 81.1095C384.315 81.1684 384.393 81.2269 384.469 81.2785C384.456 81.295 384.446 81.3123 384.441 81.3319C384.406 81.4659 384.464 81.6721 384.518 81.8617C384.554 81.9879 384.587 82.1067 384.591 82.1918C384.598 82.3478 384.676 82.4978 384.733 82.6089C384.762 82.6664 384.786 82.7137 384.792 82.7455C384.797 82.771 384.789 82.788 384.781 82.8055C384.774 82.8208 384.766 82.8367 384.767 82.8587C384.778 83.1267 384.868 83.2424 384.998 83.4117C385.07 83.5051 385.154 83.6148 385.244 83.7749C385.337 83.9455 385.357 83.9985 385.342 84.091C385.42 84.1599 385.498 84.2291 385.576 84.2983C385.588 84.2858 385.574 84.2265 385.547 84.1291C385.5 83.9552 385.563 83.854 385.614 83.7749C385.638 83.7382 385.658 83.7063 385.663 83.6741C385.689 83.5029 385.581 83.3304 385.485 83.1791C385.432 83.0957 385.383 83.0187 385.363 82.9513C385.355 82.9225 385.337 82.8981 385.319 82.8732C385.305 82.854 385.291 82.8345 385.281 82.8124C385.206 82.6521 385.205 82.5085 385.205 82.3747C385.205 82.2981 385.205 82.2246 385.191 82.1533C385.187 82.1316 385.182 82.1099 385.177 82.0889C385.169 82.0583 385.162 82.029 385.16 82.0023C385.154 81.9416 385.175 81.8894 385.197 81.8329C385.209 81.8038 385.221 81.7735 385.231 81.74C385.243 81.6967 385.224 81.6284 385.205 81.5571C385.192 81.5067 385.178 81.4547 385.174 81.4085C385.167 81.325 385.206 81.2767 385.242 81.232C385.258 81.2125 385.272 81.1937 385.283 81.173C385.287 81.1646 385.285 81.1522 385.279 81.1367C385.333 81.0532 385.383 80.9704 385.431 80.8897C385.686 80.4778 386.064 80.0832 386.604 80.0893C386.708 80.0901 386.806 80.0515 386.9 79.994C387.241 79.9587 387.576 79.9327 387.902 79.913C388.008 80.0478 388.119 80.1546 388.235 80.2301C388.453 80.3717 388.631 80.3642 388.839 80.3558C388.993 80.3496 389.163 80.3434 389.378 80.3965C389.738 80.486 390.095 80.5462 390.468 80.5181C390.839 80.4908 391.245 80.4228 391.512 80.3497C391.658 80.31 391.85 80.3903 392.034 80.4584C392.286 80.5577 392.531 80.6243 392.491 80.3689C392.477 80.2884 392.434 80.1575 392.38 80.0372C392.342 79.9514 392.301 79.8702 392.267 79.8113C392.289 79.8223 392.301 79.8358 392.28 79.8836C392.38 79.9297 392.069 80.8213 392.405 81.3175C392.524 81.4026 392.545 81.3642 392.534 81.3318C392.473 81.2385 392.369 81.1279 392.284 81.0304C392.254 80.9975 392.224 80.9646 392.194 80.9322C392.194 80.9319 392.193 80.9315 392.193 80.9312C392.132 80.8656 392.07 80.8015 392.007 80.7391C391.98 80.7127 391.953 80.6861 391.926 80.6605C391.857 80.5947 391.787 80.5316 391.718 80.4722C391.682 80.4407 391.646 80.4104 391.609 80.381C391.551 80.3336 391.492 80.2896 391.442 80.2518C391.363 80.1668 391.287 80.2523 391.469 79.987C391.487 79.9415 391.469 79.8924 391.431 79.8726C391.392 79.8516 391.34 79.852 391.287 79.8521C391.235 79.8523 391.183 79.8502 391.144 79.8337C391.105 79.8178 391.085 79.7857 391.092 79.7587C391.153 79.583 391.374 79.5445 391.532 79.5127C391.637 79.4947 391.742 79.4856 391.845 79.4814C391.91 79.4791 391.972 79.4785 392.035 79.4791C392.154 79.4806 392.274 79.4874 392.393 79.4985C392.439 79.5024 392.487 79.5076 392.533 79.5126C392.643 79.5254 392.753 79.5411 392.862 79.5596C392.863 79.5598 392.864 79.5599 392.864 79.56C392.918 79.5689 392.972 79.5787 393.024 79.5887C393.193 79.6234 393.334 79.6467 393.526 79.7083C393.629 79.7466 393.765 79.7938 393.945 79.9768C394.059 80.1007 394.165 80.2717 394.21 80.4837C394.234 80.5967 394.238 80.7216 394.226 80.8299C393.439 82.6761 392.975 82.2899 392.441 82.7908C391.919 83.1431 391.406 83.4532 390.901 83.7518C390.395 84.0501 389.896 84.3339 389.413 84.6128C386.492 86.2071 384.635 88.5221 380.831 90.7494C380.258 91.0624 379.962 91.2443 379.53 91.4914C379.117 91.7297 378.711 91.9649 378.294 92.2044C378.167 92.2775 378.037 92.352 377.903 92.4283Z" fill="white"/>
</svg>
